<?xml version="1.0" encoding="UTF-8"?>
<svg id="Layer_1" data-name="Layer 1" xmlns="http://www.w3.org/2000/svg" xmlns:xlink="http://www.w3.org/1999/xlink" viewBox="0 0 227.41 227.41">
  <defs>
    <style>
      .cls-1 {
        fill: #2298ff;
      }

      .cls-1, .cls-2, .cls-3, .cls-4, .cls-5, .cls-6, .cls-7, .cls-8, .cls-9, .cls-10, .cls-11, .cls-12, .cls-13, .cls-14, .cls-15, .cls-16, .cls-17, .cls-18, .cls-19, .cls-20, .cls-21, .cls-22, .cls-23, .cls-24, .cls-25, .cls-26, .cls-27, .cls-28, .cls-29, .cls-30, .cls-31, .cls-32, .cls-33, .cls-34, .cls-35, .cls-36, .cls-37, .cls-38, .cls-39, .cls-40, .cls-41, .cls-42, .cls-43, .cls-44 {
        stroke-width: 0px;
      }

      .cls-2 {
        fill: #2291ff;
      }

      .cls-3 {
        fill: #229bff;
      }

      .cls-45 {
        clip-path: url(#clippath);
      }

      .cls-4, .cls-46 {
        fill: none;
      }

      .cls-5 {
        fill: url(#linear-gradient);
      }

      .cls-6 {
        fill: #2294ff;
      }

      .cls-7 {
        fill: #22a3ff;
      }

      .cls-8 {
        fill: #27f;
      }

      .cls-9 {
        fill: #2285ff;
      }

      .cls-10 {
        fill: #2289ff;
      }

      .cls-11 {
        fill: #2297ff;
      }

      .cls-12 {
        fill: #227bff;
      }

      .cls-13 {
        fill: #28f;
      }

      .cls-14 {
        fill: #2280ff;
      }

      .cls-15 {
        fill: #2282ff;
      }

      .cls-16 {
        fill: #22a4ff;
      }

      .cls-17 {
        fill: #2290ff;
      }

      .cls-18 {
        fill: #2283ff;
      }

      .cls-19 {
        fill: #22a1ff;
      }

      .cls-20 {
        fill: #2279ff;
      }

      .cls-21 {
        fill: #2284ff;
      }

      .cls-22 {
        fill: #2286ff;
      }

      .cls-23 {
        fill: #22a6ff;
      }

      .cls-24 {
        fill: #2295ff;
      }

      .cls-25 {
        fill: #229dff;
      }

      .cls-26 {
        fill: #2281ff;
      }

      .cls-27 {
        fill: #227cff;
      }

      .cls-46 {
        stroke: #fff;
        stroke-dasharray: 0 3;
        stroke-miterlimit: 10;
      }

      .cls-28 {
        fill: #227eff;
      }

      .cls-29 {
        fill: #228fff;
      }

      .cls-30 {
        fill: #2293ff;
      }

      .cls-31 {
        fill: #227dff;
      }

      .cls-32 {
        fill: #228cff;
      }

      .cls-33 {
        fill: #229aff;
      }

      .cls-47 {
        opacity: .25;
      }

      .cls-34 {
        opacity: .5;
      }

      .cls-34, .cls-41 {
        fill: #fff;
      }

      .cls-35 {
        fill: #227fff;
      }

      .cls-36 {
        fill: url(#linear-gradient-2);
      }

      .cls-37 {
        fill: #227aff;
      }

      .cls-38 {
        fill: #22a0ff;
      }

      .cls-39 {
        fill: #2278ff;
      }

      .cls-40 {
        fill: #228bff;
      }

      .cls-42 {
        fill: #228aff;
      }

      .cls-43 {
        fill: #229eff;
      }

      .cls-44 {
        fill: #228dff;
      }
    </style>
    <linearGradient id="linear-gradient" x1="14.7" y1="14.7" x2="212.71" y2="212.71" gradientUnits="userSpaceOnUse">
      <stop offset="0" stop-color="#27f"/>
      <stop offset=".29" stop-color="#227bff"/>
      <stop offset=".58" stop-color="#2287ff"/>
      <stop offset=".88" stop-color="#229bff"/>
      <stop offset="1" stop-color="#22a6ff"/>
    </linearGradient>
    <clipPath id="clippath">
      <circle class="cls-4" cx="113.47" cy="113.6" r="11.51"/>
    </clipPath>
    <linearGradient id="linear-gradient-2" x1="105.21" y1="113.6" x2="121.73" y2="113.6" gradientUnits="userSpaceOnUse">
      <stop offset="0" stop-color="#27f"/>
      <stop offset=".35" stop-color="#228dff"/>
      <stop offset=".73" stop-color="#229fff"/>
      <stop offset="1" stop-color="#22a6ff"/>
    </linearGradient>
  </defs>
  <rect class="cls-5" width="227.41" height="227.41" rx="50.18" ry="50.18"/>
  <g class="cls-47">
    <path class="cls-41" d="M173.2,214.21H53.71c-22.33,0-40.5-18.17-40.5-40.5V53.71c0-22.33,18.17-40.5,40.5-40.5h119.49c22.33,0,40.5,18.17,40.5,40.5v120c0,22.33-18.17,40.5-40.5,40.5ZM53.71,14.21c-21.78,0-39.5,17.72-39.5,39.5v120c0,21.78,17.72,39.5,39.5,39.5h119.49c21.78,0,39.5-17.72,39.5-39.5V53.71c0-21.78-17.72-39.5-39.5-39.5H53.71Z"/>
    <rect class="cls-41" x="113.01" y="-11.08" width=".88" height="249.58" transform="translate(-47.17 113.32) rotate(-44.93)"/>
    <rect class="cls-41" x="-11.34" y="113.26" width="249.58" height=".88" transform="translate(-47.17 113.78) rotate(-45.09)"/>
    <path class="cls-41" d="M213.69,157.61H13.26v-89.03h200.43v89.03ZM14.2,156.67h198.55v-87.15H14.2v87.15Z"/>
    <rect class="cls-41" x="119.16" y="113.21" width="94.55" height="1"/>
    <rect class="cls-41" x="107.78" y="113.21" width="11.38" height="1"/>
    <rect class="cls-41" x="14.22" y="113.21" width="93.57" height="1"/>
    <path class="cls-41" d="M157.23,214.17h-87.92V13.24h87.92v200.93ZM70.24,213.24h86.06V14.17h-86.06v199.07Z"/>
    <rect class="cls-41" x="112.95" y="13.71" width="1" height="200"/>
    <path class="cls-41" d="M113.45,213.69c-54.99,0-99.74-44.86-99.74-99.99S58.46,13.72,113.45,13.72s99.74,44.86,99.74,99.99-44.74,99.99-99.74,99.99ZM113.45,14.72C59.01,14.72,14.72,59.12,14.72,113.71s44.29,98.99,98.74,98.99,98.74-44.41,98.74-98.99S167.89,14.72,113.45,14.72Z"/>
    <path class="cls-41" d="M184.07,184.5H42.83V42.91h141.24v141.6ZM43.83,183.5h139.24V43.91H43.83v139.6Z"/>
    <path class="cls-41" d="M113.56,184.38c-38.93,0-70.6-31.75-70.6-70.78s31.67-70.78,70.6-70.78,70.6,31.75,70.6,70.78-31.67,70.78-70.6,70.78ZM113.56,43.82c-38.38,0-69.6,31.3-69.6,69.78s31.22,69.78,69.6,69.78,69.6-31.3,69.6-69.78-31.22-69.78-69.6-69.78Z"/>
    <path class="cls-41" d="M113.47,157.44c-24.11,0-43.73-19.67-43.73-43.84s19.62-43.84,43.73-43.84,43.73,19.67,43.73,43.84-19.62,43.84-43.73,43.84ZM113.47,70.63c-23.63,0-42.86,19.28-42.86,42.97s19.23,42.97,42.86,42.97,42.86-19.28,42.86-42.97-19.23-42.97-42.86-42.97Z"/>
    <path class="cls-41" d="M113.47,133.68c-11.07,0-20.08-9.01-20.08-20.08s9.01-20.08,20.08-20.08,20.08,9.01,20.08,20.08-9.01,20.08-20.08,20.08ZM113.47,94.3c-10.64,0-19.29,8.66-19.29,19.29s8.66,19.3,19.29,19.3,19.3-8.66,19.3-19.3-8.66-19.29-19.3-19.29Z"/>
  </g>
  <polygon class="cls-41" points="104.88 122.69 70.34 87.52 70.36 84.49 106.29 121.27 104.88 122.69"/>
  <g>
    <line class="cls-8" x1="150.85" y1="125.22" x2="115.21" y2="125.07"/>
    <polygon class="cls-41" points="153.01 126.22 114.29 126.07 114.29 124.07 153.01 124.6 153.01 126.22"/>
  </g>
  <path class="cls-41" d="M153.02,102.79l-28.73-.4c-4.27-.02-8.29-1.7-11.31-4.72l-54.16-54.33h2.84s52.74,52.91,52.74,52.91c2.64,2.65,6.16,4.11,9.91,4.13l28.72.4"/>
  <g>
    <g>
      <g class="cls-45">
        <rect class="cls-8" x="101.86" y="101.99" width=".1" height="23.22"/>
        <rect class="cls-8" x="101.96" y="101.99" width=".49" height="23.22"/>
        <rect class="cls-8" x="102.45" y="101.99" width=".49" height="23.22"/>
        <rect class="cls-8" x="102.94" y="101.99" width=".49" height="23.22"/>
        <rect class="cls-39" x="103.43" y="101.99" width=".49" height="23.22"/>
        <rect class="cls-39" x="103.92" y="101.99" width=".49" height="23.22"/>
        <rect class="cls-39" x="104.41" y="101.99" width=".49" height="23.22"/>
        <rect class="cls-20" x="104.9" y="101.99" width=".49" height="23.22"/>
        <rect class="cls-20" x="105.39" y="101.99" width=".49" height="23.22"/>
        <rect class="cls-37" x="105.88" y="101.99" width=".49" height="23.22"/>
        <rect class="cls-37" x="106.37" y="101.99" width=".49" height="23.22"/>
        <rect class="cls-12" x="106.86" y="101.99" width=".49" height="23.22"/>
        <rect class="cls-27" x="107.35" y="101.99" width=".49" height="23.22"/>
        <rect class="cls-27" x="107.84" y="101.99" width=".49" height="23.22"/>
        <rect class="cls-31" x="108.33" y="101.99" width=".49" height="23.22"/>
        <rect class="cls-28" x="108.82" y="101.99" width=".49" height="23.22"/>
        <rect class="cls-35" x="109.31" y="101.99" width=".49" height="23.22"/>
        <rect class="cls-14" x="109.8" y="101.99" width=".49" height="23.22"/>
        <rect class="cls-14" x="110.29" y="101.99" width=".49" height="23.22"/>
        <rect class="cls-26" x="110.78" y="101.99" width=".49" height="23.22"/>
        <rect class="cls-15" x="111.27" y="101.99" width=".49" height="23.22"/>
        <rect class="cls-18" x="111.76" y="101.99" width=".49" height="23.22"/>
        <rect class="cls-21" x="112.25" y="101.99" width=".49" height="23.22"/>
        <rect class="cls-9" x="112.74" y="101.99" width=".49" height="23.22"/>
        <rect class="cls-22" x="113.23" y="101.99" width=".49" height="23.22"/>
        <rect class="cls-13" x="113.72" y="101.99" width=".49" height="23.22"/>
        <rect class="cls-10" x="114.21" y="101.99" width=".49" height="23.22"/>
        <rect class="cls-42" x="114.7" y="101.99" width=".49" height="23.22"/>
        <rect class="cls-40" x="115.19" y="101.99" width=".49" height="23.22"/>
        <rect class="cls-32" x="115.68" y="101.99" width=".49" height="23.22"/>
        <rect class="cls-44" x="116.17" y="101.99" width=".49" height="23.22"/>
        <rect class="cls-29" x="116.66" y="101.99" width=".49" height="23.22"/>
        <rect class="cls-17" x="117.15" y="101.99" width=".49" height="23.22"/>
        <rect class="cls-2" x="117.64" y="101.99" width=".49" height="23.22"/>
        <rect class="cls-30" x="118.13" y="101.99" width=".49" height="23.22"/>
        <rect class="cls-6" x="118.62" y="101.99" width=".49" height="23.22"/>
        <rect class="cls-24" x="119.11" y="101.99" width=".49" height="23.22"/>
        <rect class="cls-11" x="119.6" y="101.99" width=".49" height="23.22"/>
        <rect class="cls-1" x="120.09" y="101.99" width=".49" height="23.22"/>
        <rect class="cls-33" x="120.58" y="101.99" width=".49" height="23.22"/>
        <rect class="cls-3" x="121.07" y="101.99" width=".49" height="23.22"/>
        <rect class="cls-25" x="121.56" y="101.99" width=".49" height="23.22"/>
        <rect class="cls-43" x="122.05" y="101.99" width=".49" height="23.22"/>
        <rect class="cls-38" x="122.54" y="101.99" width=".49" height="23.22"/>
        <rect class="cls-19" x="123.03" y="101.99" width=".49" height="23.22"/>
        <rect class="cls-7" x="123.52" y="101.99" width=".49" height="23.22"/>
        <rect class="cls-16" x="124.01" y="101.99" width=".49" height="23.22"/>
        <rect class="cls-23" x="124.5" y="101.99" width=".49" height="23.22"/>
        <rect class="cls-23" x="124.99" y="101.99" width=".1" height="23.22"/>
      </g>
      <path class="cls-41" d="M113.48,126.11c-.07,0-.13,0-.2,0-3.34-.05-6.46-1.4-8.79-3.8s-3.58-5.56-3.53-8.9c.05-3.34,1.4-6.46,3.8-8.79s5.57-3.55,8.9-3.53c3.34.05,6.46,1.4,8.79,3.8,2.33,2.4,3.58,5.56,3.53,8.9h0c-.05,3.34-1.4,6.46-3.8,8.79-2.35,2.28-5.44,3.53-8.71,3.53ZM113.47,103.09c-2.75,0-5.34,1.05-7.32,2.97-2.02,1.96-3.15,4.58-3.19,7.39s1.01,5.46,2.97,7.48,4.58,3.15,7.39,3.19c2.79.03,5.46-1.01,7.48-2.96,2.02-1.96,3.15-4.58,3.19-7.39h0c.04-2.81-1.01-5.46-2.96-7.48s-4.58-3.15-7.39-3.19c-.05,0-.11,0-.16,0Z"/>
    </g>
    <g>
      <circle class="cls-41" cx="113.47" cy="113.6" r="5.76"/>
      <path class="cls-36" d="M113.48,121.86s-.09,0-.13,0c-2.21-.03-4.27-.92-5.81-2.51-1.54-1.58-2.36-3.67-2.33-5.88.03-2.21.92-4.27,2.51-5.81,1.55-1.51,3.59-2.33,5.75-2.33.04,0,.09,0,.13,0,2.21.03,4.27.92,5.81,2.51,1.54,1.58,2.36,3.67,2.33,5.88h0c-.03,2.21-.92,4.27-2.51,5.81-1.55,1.51-3.59,2.33-5.75,2.33ZM113.47,110.34c-.85,0-1.66.33-2.27.92-.62.61-.98,1.42-.99,2.29-.01.87.31,1.7.92,2.32.61.63,1.42.98,2.29.99.02,0,.04,0,.05,0,.85,0,1.66-.33,2.27-.92.63-.61.98-1.42.99-2.29h0c.01-.87-.31-1.7-.92-2.32-.61-.62-1.42-.98-2.29-.99-.02,0-.03,0-.05,0Z"/>
    </g>
  </g>
  <g>
    <rect class="cls-41" x="96.07" y="105.51" width="2.57" height="2" transform="translate(-46.75 99.04) rotate(-44.6)"/>
    <rect class="cls-41" x="91.26" y="99.75" width="6.83" height="2" transform="translate(-43.48 95.5) rotate(-44.6)"/>
    <rect class="cls-41" x="87.68" y="96.99" width="2.57" height="2" transform="translate(-43.18 90.6) rotate(-44.57)"/>
    <rect class="cls-41" x="82.87" y="91.23" width="6.83" height="2" transform="translate(-39.91 87.15) rotate(-44.6)"/>
    <rect class="cls-41" x="79.28" y="88.47" width="2.57" height="2" transform="translate(-39.62 82.26) rotate(-44.57)"/>
    <rect class="cls-41" x="74.47" y="82.71" width="6.83" height="2" transform="translate(-36.35 78.81) rotate(-44.6)"/>
    <rect class="cls-41" x="70.89" y="79.95" width="2.57" height="2" transform="translate(-36.05 73.92) rotate(-44.57)"/>
  </g>
  <g>
    <rect class="cls-41" x="145.16" y="117.18" width="6.83" height="2" transform="translate(29.25 265.83) rotate(-89.55)"/>
    <rect class="cls-41" x="141.3" y="119.26" width="2.57" height="2" transform="translate(21.21 261.9) rotate(-89.55)"/>
    <rect class="cls-41" x="133.2" y="117.09" width="6.83" height="2" transform="translate(17.47 253.78) rotate(-89.55)"/>
    <rect class="cls-41" x="129.34" y="119.18" width="2.57" height="2" transform="translate(9.43 249.86) rotate(-89.55)"/>
  </g>
  <path class="cls-34" d="M113.82,43.27l-47.94.04c7.77,7.81,15.46,15.49,23.21,23.27,1.92,1.92,4.52,3.02,7.23,3.05l16.47.15c.31.02.7.04,1.13.07,23.94.45,43.21,19.86,43.21,43.75h0c0,24.17-19.73,43.77-44.07,43.77h0c-23.31.01-42.21-18.87-42.24-42.17l-.02-18.45c0-2.73-1.09-5.35-3.02-7.29l-23.61-23.66s0,106.16,0,106.16c0,6.7,5.47,12.14,12.22,12.14h57.42c39.15,0,70.89-31.52,70.89-70.41h0c0-38.89-31.74-70.41-70.89-70.41Z"/>
  <path class="cls-41" d="M113.82,43.27h-3s0,2,0,2h3s.39,0,.39,0v-2c-.09,0-.19,0-.29,0h-.1ZM107.82,43.28h-3s0,2,0,2h3s0-2,0-2h0ZM101.82,43.28h-3s0,2,0,2h3s0-2,0-2h0ZM95.82,43.29h-3s0,2,0,2h3s0-2,0-2h0ZM89.82,43.29h-3s0,2,0,2h3s0-2,0-2h0ZM83.82,43.3h-3s0,2,0,2h3s0-2,0-2h0ZM77.82,43.3h-3s0,2,0,2h3s0-2,0-2h0ZM71.82,43.31h-3s0,.13,0,.13l-.12-.12h-2.74s-.04.04-.04.04c0,0,.02.02.03.03.01.01.02.02.04.04,0,0,0,0,.01.01.24.24.47.48.71.72,0,0,.02.02.03.03.01.01.03.03.04.04.03.03.05.05.08.08,0,0,0,0,.01.01.38.38.75.76,1.13,1.14.01.01.02.02.03.03,0,0,0,0,0,0l.79-.79v.62s3,0,3,0v-2h0ZM71.56,46.19l-1.42,1.41c.71.71,1.41,1.42,2.12,2.12l1.42-1.41-2.12-2.12h0ZM75.8,50.44l-1.42,1.41c.71.71,1.41,1.42,2.12,2.12l1.42-1.41-2.12-2.12h0ZM80.04,54.68l-1.42,1.41c.07.07.13.13.2.2.04.04.09.09.13.13.6.6,1.19,1.2,1.79,1.79l1.42-1.41-1.77-1.77-.35-.35h0ZM84.28,58.93l-1.42,1.41c.34.34.68.68,1.01,1.02.37.37.74.74,1.1,1.11l1.42-1.41-2.12-2.12h0ZM88.51,63.18l-1.42,1.41.08.08c.48.48.95.95,1.43,1.43h0s0,0,0,0c0,0,0,0,0,0,.2.2.41.4.62.58l1.31-1.51c-.18-.16-.36-.32-.53-.49l-1.51-1.51h0ZM92.62,66.57l-.9,1.79c.35.18.72.34,1.09.48h0s.02,0,.03.01h0s0,0,0,0h0s.02,0,.02,0c0,0,0,0,0,0,0,0,0,0,0,0,0,0,0,0,0,0,0,0,0,0,0,0,0,0,0,0,0,0,0,0,0,0,.01,0,0,0,0,0,0,0,0,0,0,0,0,0,0,0,0,0,0,0,0,0,0,0,0,0,0,0,0,0,0,0,0,0,0,0,0,0,0,0,0,0,0,0,0,0,0,0,0,0,0,0,0,0,0,0,0,0,0,0,0,0,0,0,0,0,0,0,0,0,0,0,0,0,0,0,0,0,0,0,0,0,0,0,0,0,0,0,0,0,0,0,0,0,0,0,0,0,0,0,0,0,0,0,0,0,0,0,0,0,0,0,0,0,0,0,0,0,0,0,0,0,0,0,0,0,0,0,0,0,0,0,0,0,0,0,0,0,0,0,0,0,0,0,0,0,0,0,0,0,0,0,0,0,0,0,0,0,0,0,.01,0,.02,0,0,0,0,0,0,0,0,0,0,0,0,0,0,0,0,0,0,0,0,0,.01,0,.02,0t0,0s0,0,0,0c0,0,0,0,0,0,0,0,0,0,0,0,0,0,0,0,0,0,0,0,.01,0,.02,0,0,0,0,0,0,0,0,0,0,0,0,0,0,0,0,0,0,0,0,0,.01,0,.02,0h0s0,0,.01,0c0,0,0,0,0,0,.01,0,.02,0,.03.01,0,0,0,0,0,0,0,0,0,0,.01,0h0s.02,0,.03.01c0,0,0,0,0,0,.01,0,.02,0,.03.01,0,0,0,0,0,0,.08.03.16.05.23.08h0s.02,0,.03.01h0s.05.02.08.02h0s.02,0,.03.01c0,0,0,0,0,0,0,0,0,0,.01,0,0,0,0,0,0,0,0,0,.01,0,.02,0,0,0,0,0,0,0,0,0,0,0,.01,0,0,0,0,0,0,0,.01,0,.02,0,.03,0,0,0,0,0,0,0,0,0,0,0,0,0,0,0,0,0,0,0,0,0,.01,0,.02,0,0,0,0,0,0,0,0,0,0,0,0,0,0,0,0,0,0,0,0,0,0,0,.01,0h0s0,0,.01,0c0,0,0,0,0,0,0,0,0,0,0,0,0,0,0,0,0,0,0,0,0,0,0,0,0,0,0,0,0,0,0,0,0,0,.01,0,0,0,0,0,0,0,0,0,0,0,0,0,0,0,0,0,0,0,0,0,0,0,0,0,0,0,0,0,0,0,0,0,0,0,0,0,0,0,0,0,0,0,0,0,0,0,0,0,0,0,0,0,0,0,0,0,0,0,0,0,0,0,0,0,0,0,0,0,0,0,0,0,0,0,0,0,0,0,0,0,0,0,0,0,0,0,0,0,0,0,0,0,0,0,0,0,0,0,0,0,0,0,0,0,0,0,0,0,0,0,0,0,0,0,0,0,0,0,0,0,0,0,0,0,.01,0,0,0,0,0,0,0,0,0,0,0,0,0,0,0,0,0,0,0,0,0,0,0,0,0,0,0,0,0,0,0,0,0,.02,0,.02,0,0,0,0,0,0,0,0,0,0,0,0,0,0,0,0,0,0,0,.17.04.34.09.51.12l.43-1.95c-.81-.18-1.6-.46-2.35-.83h0ZM97.54,67.64l-.02,2,3,.03.02-2-3-.03h0ZM103.54,67.69l-.02,2s.45,0,.99,0h.02s0,0,0,0l1.98.02.02-2-3-.03h0ZM109.54,67.74l-.02,2s2.24.02,2.85.03h0s.01,0,.02,0h.03s0,0,0,0h.1s.02-2,.02-2l-3-.03h0ZM115.63,67.91l-.11,2c.23.01.45.03.68.04,0,0,0,0,0,0,.02,0,.03,0,.04,0,0,0,0,0,0,0,0,0,.01,0,.01,0h0s0,0,.01,0c0,0,0,0,.01,0,0,0,0,0,.01,0,0,0,0,0,.01,0,0,0,0,0,0,0,0,0,0,0,.01,0,0,0,0,0,0,0,.01,0,.02,0,.03,0h0s.01,0,.02,0h0c.71.05,1.41.12,2.11.21l.24-1.99c-1.03-.13-2.08-.22-3.12-.28h0ZM121.85,68.67l-.38,1.96c.64.12,1.27.26,1.89.41h0s.03,0,.05.01h0s0,0,.01,0c0,0,0,0,0,0,.01,0,.03,0,.04.01,0,0,0,0,0,0,0,0,0,0,.01,0,0,0,0,0,0,0,0,0,.01,0,.02,0,0,0,0,0,0,0,0,0,0,0,.01,0,0,0,0,0,0,0,0,0,0,0,.01,0,0,0,.01,0,.02,0,0,0,0,0,.01,0,0,0,0,0,.01,0,0,0,0,0,0,0,0,0,0,0,.01,0,0,0,0,0,0,0,0,0,.01,0,.02,0,0,0,0,0,0,0,0,0,0,0,.01,0,0,0,0,0,0,0,.01,0,.03,0,.04.01,0,0,0,0,0,0,0,0,.01,0,.02,0,0,0,0,0,0,0,0,0,.01,0,.02,0,0,0,0,0,0,0,0,0,.01,0,.02,0,0,0,0,0,0,0,.2.05.41.1.61.16l.51-1.93c-1.01-.27-2.03-.5-3.06-.7h0ZM127.91,70.27l-.64,1.89c.08.03.15.05.23.08h0s.03.01.04.02c0,0,0,0,0,0,0,0,0,0,.01,0,0,0,0,0,0,0,0,0,.01,0,.02,0,0,0,0,0,0,0,0,0,0,0,.01,0,0,0,0,0,0,0,0,0,0,0,.01,0,0,0,0,0,.01,0,0,0,0,0,0,0,0,0,0,0,.01,0,0,0,0,0,0,0,0,0,.01,0,.02,0,0,0,0,0,0,0,0,0,.01,0,.02,0,0,0,0,0,0,0,0,0,.01,0,.02,0h0s.01,0,.02,0c0,0,0,0,0,0,0,0,.01,0,.02,0,0,0,0,0,0,0,.01,0,.03.01.04.02,0,0,0,0,0,0,.58.2,1.15.42,1.71.64,0,0,0,0,0,0,.01,0,.03.01.04.02h0s.01,0,.02,0c0,0,0,0,0,0,0,0,.01,0,.02,0h0s.01,0,.02,0c0,0,0,0,0,0,0,0,.01,0,.02,0,0,0,0,0,0,0,0,0,.01,0,.02,0h0s0,0,.01,0c0,0,0,0,0,0,0,0,.01,0,.02,0,0,0,0,0,.01,0,0,0,0,0,0,0h.01s0,0,0,0c0,0,.01,0,.02,0,0,0,0,0,0,0,0,0,0,0,.01,0,0,0,0,0,0,0,.09.04.18.07.27.11l.77-1.85c-.96-.4-1.95-.77-2.93-1.1h0ZM133.7,72.68l-.89,1.79s0,0,0,0c.72.36,1.43.74,2.13,1.14,0,0,0,0,0,0,0,0,.01,0,.02,0,0,0,0,0,0,0,0,0,.01,0,.02.01h0s0,0,.01.01c0,0,0,0,0,0,0,0,0,0,.02,0,0,0,0,0,0,0,0,0,0,0,0,0,0,0,0,0,.01,0,0,0,0,0,0,0,.01,0,.03.02.04.02h0c.12.07.24.14.36.21l1.01-1.72c-.9-.53-1.83-1.03-2.76-1.49h0ZM139.1,75.85l-1.13,1.65c.1.07.21.14.31.21h0s.06.04.1.07c0,0,0,0,0,0,.01,0,.02.02.04.03,0,0,0,0,0,0,0,0,.01,0,.02.01,0,0,0,0,0,0,0,0,.01,0,.02.01,0,0,0,0,0,0,0,0,0,0,.01,0,0,0,0,0,0,0,0,0,.01,0,.02.01,0,0,0,0,0,0,0,0,0,0,.01,0,0,0,0,0,0,0,0,0,.01,0,.02.01,0,0,0,0,0,0,0,0,0,0,.02.01,0,0,0,0,0,0,0,0,0,0,.01,0,0,0,0,0,0,0,0,0,.01,0,.01.01,0,0,0,0,0,0,0,0,0,0,0,0,0,0,0,0,0,0,0,0,0,0,.01.01,0,0,0,0,0,0,0,0,0,0,0,0,0,0,0,0,0,0,0,0,0,0,0,0,0,0,.01,0,.02.01,0,0,0,0,0,0,0,0,0,0,0,0,0,0,0,0,0,0,0,0,.01,0,.02.01,0,0,0,0,0,0,0,0,0,0,.01,0,0,0,0,0,0,0,.01,0,.02.02.04.03,0,0,0,0,0,0,.01,0,.03.02.04.03h0c.34.24.67.49,1,.74h0s.02.02.04.03c0,0,0,0,0,0,0,0,0,0,.01,0h0s.01.01.02.02c0,0,0,0,0,0,0,0,0,0,.01,0,0,0,0,0,0,0,0,0,.01.01.02.01,0,0,0,0,0,0,0,0,0,0,0,0,0,0,0,0,0,0,0,0,0,0,0,0,0,0,0,0,.01,0,0,0,0,0,0,0,0,0,0,0,0,0,0,0,0,0,0,0,0,0,0,0,.01.01,0,0,0,0,0,0,0,0,0,0,.01.01,0,0,0,0,0,0,0,0,0,0,.01,0,0,0,0,0,0,0,0,0,.01,0,.02.01,0,0,0,0,0,0,0,0,0,0,.01.01,0,0,0,0,0,0,0,0,.01,0,.02.01,0,0,0,0,0,0,0,0,.01,0,.02.01,0,0,0,0,0,0,.09.07.18.14.28.22l1.24-1.57c-.82-.64-1.67-1.27-2.53-1.85h0ZM144.03,79.72l-1.34,1.48c.28.25.55.5.82.76,0,0,0,0,0,0,.01.01.02.02.03.03,0,0,0,0,0,0,.01.01.02.02.03.03,0,0,0,0,0,0,0,0,0,0,.01.01,0,0,0,0,0,0,0,0,.01,0,.02.01,0,0,0,0,0,0,0,0,0,0,.01.01,0,0,0,0,0,0,0,0,0,0,.01.01,0,0,0,0,0,0,0,0,0,0,0,0,0,0,0,0,0,0,0,0,0,0,0,0,0,0,0,0,.01.01,0,0,0,0,0,0,0,0,0,0,0,0,0,0,0,0,0,0,0,0,.02.02.03.03,0,0,0,0,0,0,0,0,0,0,0,0,0,0,0,0,0,0,0,0,.01.01.02.02h0c.36.35.72.71,1.07,1.07l1.44-1.39c-.72-.75-1.48-1.48-2.25-2.18h0ZM148.39,84.23l-1.53,1.29c.19.22.37.44.55.67,0,0,0,0,0,0,0,0,0,.01.01.02,0,0,0,0,0,0,0,0,0,.01.01.02,0,0,0,0,0,0,0,0,0,0,.01.01,0,0,0,0,0,0,0,0,0,.01.01.01,0,0,0,0,0,0,0,0,0,0,0,0,0,0,0,0,0,0,0,0,0,0,0,0,0,0,0,.01.01.02,0,0,0,0,0,0,0,0,0,0,0,.01h0c.41.51.81,1.03,1.19,1.56l1.61-1.18c-.62-.84-1.27-1.67-1.94-2.46h0ZM152.09,89.28l-1.69,1.07s0,0,0,0c0,0,0,.01.01.02,0,0,0,0,0,0,0,0,0,.01.01.02,0,0,0,0,0,0,0,0,0,.01.01.02,0,0,0,0,0,0,0,0,0,.01.01.02,0,0,0,0,0,0,.33.52.65,1.05.95,1.59,0,0,0,0,0,0,0,.01.02.03.02.04,0,0,0,0,0,0,0,0,0,.01,0,.02,0,0,0,0,0,0,0,0,0,.01.01.02,0,0,0,0,0,0,0,0,0,0,0,.01,0,0,0,0,0,0,0,0,0,0,0,.01,0,0,0,0,0,0,0,0,0,0,0,.01,0,0,0,0,0,0,0,0,0,0,0,0,0,0,0,.01.01.02,0,0,0,0,0,0,0,0,0,0,0,.01,0,0,0,0,0,0,.14.24.27.48.4.73l1.76-.95c-.49-.92-1.03-1.83-1.58-2.71h0ZM155.07,94.8l-1.82.83c.35.77.68,1.55.98,2.34,0,0,0,0,0,0,0,0,0,0,0,.01,0,0,0,0,0,.01,0,0,0,0,0,.01,0,0,0,0,0,.01,0,0,0,0,0,0,0,0,0,.01,0,.02,0,0,0,0,0,0,0,0,0,.01,0,.02h0c.04.11.08.22.12.33l1.87-.7c-.36-.98-.77-1.95-1.2-2.9h0ZM157.26,100.68l-1.92.57c.07.24.14.49.21.73h0s0,.03.01.05c0,0,0,0,0,0,0,0,0,0,0,.01,0,0,0,0,0,0,0,0,0,.01,0,.02,0,0,0,0,0,0h0s0,.02,0,.02c0,0,0,0,0,0,0,0,0,.01,0,.02,0,0,0,0,0,0,0,0,0,0,0,.01,0,0,0,0,0,0,0,0,0,0,0,.01,0,0,0,0,0,0,0,0,0,.01,0,.02,0,0,0,0,0,0,0,0,0,.01,0,.02,0,0,0,0,0,0,0,0,0,.01,0,.02h0s0,.01,0,.02c0,0,0,0,0,0,0,.01,0,.03.01.04,0,0,0,0,0,0,0,0,0,.01,0,.02,0,0,0,0,0,0,0,.01,0,.03.01.04,0,0,0,0,0,0,.16.59.3,1.18.43,1.78l1.95-.43c-.23-1.02-.49-2.04-.78-3.04h0ZM158.62,106.8l-1.98.3c.15.98.26,1.98.34,2.98l1.99-.16c-.08-1.04-.2-2.09-.36-3.12h0ZM159.12,113.05l-2,.02s0,.05,0,.08h0s0,0,0,.01c0,0,0,0,0,.01,0,0,0,0,0,0,0,.11,0,.22,0,.33h0v.02h0s0,.01,0,.02h0v.02h0v.02h0v.02h0v.02h0v.02h0v.02s0,0,0,0h0v.02h0s0,.02,0,.02h0s0,.02,0,.02h0v.02s0,0,0,0h0s0,.02,0,.02c0,0,0,0,0,0h0s0,.02,0,.03h0s0,.02,0,.02c0,0,0,0,0,0,0,0,0,0,0,.01h0s0,.02,0,.02c0,0,0,0,0,0,0,0,0,0,0,.01,0,0,0,0,0,0,0,0,0,0,0,.01t0,0s0,0,0,.01c0,0,0,0,0,0,0,0,0,0,0,.01h0s0,.01,0,.02h0s0,.05,0,.07h0s0,.01,0,.02h0s0,.01,0,.02h0s0,.01,0,.02h0s0,.01,0,.02h0s0,.01,0,.02h0s0,.01,0,.02h0c0,.55-.02,1.1-.05,1.65,0,0,0,0,0,0,0,0,0,0,0,.01t0,0s0,0,0,.01c0,0,0,0,0,0,0,0,0,0,0,0,0,0,0,0,0,.01h0s0,.02,0,.02c0,0,0,0,0,0,0,0,0,0,0,.02,0,0,0,0,0,0,0,.06,0,.13-.01.19l2,.11c.05-.86.07-1.73.07-2.59,0-.18,0-.36,0-.55h0ZM156.79,119.06c-.13,1-.28,1.99-.48,2.96l1.96.39c.2-1.02.37-2.06.5-3.1l-1.98-.25h0ZM155.63,124.94c-.14.51-.29,1.03-.44,1.53,0,0,0,0,0,0-.01.04-.02.07-.03.11,0,0,0,0,0,0,0,.02-.01.04-.02.07,0,0,0,0,0,0,0,.01,0,.03-.01.04,0,0,0,0,0,0,0,0,0,.01,0,.02h0s0,.01,0,.02c0,0,0,0,0,0,0,0,0,.01,0,.02,0,0,0,0,0,0,0,.01,0,.03-.01.04,0,0,0,0,0,0,0,0,0,.01,0,.02h0s0,.02,0,.02c0,0,0,0,0,0,0,0,0,.01,0,.02,0,0,0,0,0,0,0,.01,0,.03-.01.04,0,0,0,0,0,0,0,0,0,.01,0,.02,0,0,0,0,0,0,0,0,0,.01,0,.02,0,0,0,0,0,0,0,0,0,.01,0,.02,0,0,0,0,0,0,0,0,0,.01,0,.02,0,0,0,0,0,0,0,0,0,.01,0,.02,0,0,0,0,0,0,0,0,0,.01,0,.02,0,0,0,0,0,0,0,0,0,.01,0,.02,0,0,0,0,0,0,0,0,0,.01,0,.02,0,0,0,0,0,0,0,.01,0,.03-.01.04,0,0,0,0,0,0,0,0,0,.01,0,.02,0,0,0,0,0,0,0,0,0,.01,0,.02,0,0,0,0,0,0,0,0,0,.01,0,.02,0,0,0,0,0,0,0,0,0,.01,0,.02,0,0,0,0,0,0,0,0,0,.01,0,.02,0,0,0,0,0,0,0,0,0,.01,0,.02,0,0,0,0,0,0,0,.01,0,.03-.01.04,0,0,0,0,0,0,0,0,0,.01,0,.02,0,0,0,0,0,0,0,0,0,.01,0,.02,0,0,0,0,0,0,0,0,0,.01,0,.02,0,0,0,0,0,0,0,.01,0,.03-.01.04,0,0,0,0,0,0v.02s0,0,0,0c0,0,0,.01,0,.02t0,0s0,.01,0,.02c0,0,0,0,0,0,0,.01,0,.03-.01.04,0,0,0,0,0,0,0,.02-.01.04-.02.07,0,0,0,0,0,0,0,.02-.01.04-.02.07h0s-.01.03-.02.04h0s-.02.06-.03.09l1.89.65c.34-.98.65-1.99.92-3l-1.93-.52h0ZM153.67,130.61c-.13.3-.26.6-.39.89h0s0,.01,0,.02h0s0,.02-.01.03c0,0,0,0,0,0h0s0,.02,0,.02c0,0,0,.01,0,.02,0,0,0,0,0,.01,0,0,0,0,0,0,0,0,0,0,0,.01,0,0,0,0,0,0,0,0,0,0,0,.01,0,0,0,0,0,.01,0,0,0,0,0,0,0,0,0,0,0,0,0,0,0,0,0,.01,0,0,0,0,0,0,0,0,0,.01,0,.02,0,0,0,0,0,0,0,0,0,0,0,.01,0,0,0,0,0,0,0,0,0,.01,0,.02,0,0,0,0,0,0,0,0,0,.01,0,.02,0,0,0,0,0,0,0,.01-.01.03-.02.04,0,0,0,0,0,0-.24.51-.48,1.02-.74,1.52l1.78.91c.47-.93.92-1.89,1.33-2.84l-1.84-.78h0ZM150.95,135.95c-.06.1-.13.21-.19.31h0s0,.01,0,.01h0s0,.02-.01.02c0,0,0,0,0,0,0,0,0,0,0,.01,0,0,0,0,0,0,0,0,0,0,0,0,0,0,0,.01,0,.02,0,0,0,0,0,0,0,0,0,0,0,.01h0s0,.02-.01.02c0,0,0,0,0,0,0,0,0,0,0,.01,0,0,0,0,0,0,0,0,0,.01,0,.01,0,0,0,0,0,0,0,0,0,.01-.01.02h0s0,.01-.01.02c0,0,0,0,0,0,0,.01-.02.03-.02.04,0,0,0,0,0,0,0,.01-.02.03-.02.04,0,0,0,0,0,0,0,.01-.02.03-.02.04,0,0,0,0,0,0-.11.18-.22.36-.34.53t0,0s-.02.02-.02.04c0,0,0,0,0,0,0,.01-.02.03-.02.04,0,0,0,0,0,0,0,0,0,.01-.01.02,0,0,0,0,0,0,0,0,0,.01-.01.02,0,0,0,0,0,0,0,0,0,.01-.01.02,0,0,0,0,0,0,0,0,0,.01-.01.02,0,0,0,0,0,0,0,0,0,.01-.01.02,0,0,0,0,0,0,0,0,0,0,0,.01,0,0,0,0,0,0,0,0,0,.01-.01.02,0,0,0,0,0,0,0,0,0,0,0,.01,0,0,0,0,0,0,0,0,0,0,0,.01,0,0,0,0,0,0,0,0,0,0,0,.01,0,0,0,0,0,0,0,0,0,0,0,.01h0s0,.02,0,.02c0,0,0,0,0,0,0,0,0,0,0,0,0,0,0,0,0,.01,0,0,0,0,0,0,0,0,0,.01-.01.02,0,0,0,0,0,0,0,0,0,0,0,.01,0,0,0,0,0,0,0,.01-.02.03-.02.04h0s-.02.03-.03.04h0c-.2.3-.39.59-.6.88l1.64,1.14c.6-.85,1.17-1.74,1.7-2.63l-1.72-1.03h0ZM147.53,140.87c-.53.66-1.08,1.31-1.65,1.94h0s-.02.02-.03.03c0,0,0,0,0,0,0,0,0,0,0,0,0,0,0,0,0,0,0,0,0,.01-.01.02,0,0,0,0,0,0,0,0,0,0,0,0,0,0,0,0,0,0,0,0,0,0,0,0,0,0,0,.01-.01.01,0,0,0,0,0,0,0,0,0,0-.01.01,0,0,0,0,0,0,0,0,0,.01-.01.02h0s0,.01-.01.02c0,0,0,0,0,0-.01.01-.02.02-.03.03,0,0,0,0,0,0-.04.05-.08.09-.13.14l1.47,1.36c.71-.77,1.39-1.57,2.05-2.38l-1.56-1.25h0ZM143.46,145.28c-.61.58-1.24,1.14-1.89,1.69,0,0,0,0,0,0-.01.01-.02.02-.04.03,0,0,0,0,0,0-.01,0-.02.02-.03.03,0,0,0,0,0,0,0,0-.01,0-.02.01,0,0,0,0,0,0-.01,0-.02.02-.03.03,0,0,0,0,0,0,0,0-.01,0-.02.01h0s-.01.01-.02.01c0,0,0,0,0,0,0,0,0,0-.01.01,0,0,0,0,0,0,0,0-.01,0-.02.01,0,0,0,0,0,0,0,0,0,0,0,0,0,0,0,0,0,0,0,0,0,0-.01,0,0,0,0,0,0,0,0,0,0,0,0,0,0,0,0,0,0,0,0,0,0,0,0,0,0,0,0,0-.01,0,0,0,0,0,0,0,0,0,0,0,0,0,0,0,0,0,0,0,0,0,0,0,0,0,0,0,0,0,0,0,0,0-.01.01-.02.02,0,0,0,0,0,0,0,0-.02.01-.02.02l1.27,1.54c.8-.66,1.59-1.36,2.35-2.08l-1.38-1.45h0ZM138.84,149.1c-.14.1-.27.19-.41.29h0s-.02.01-.03.02h0s0,0-.01,0h0s-.02.02-.03.03c0,0,0,0,0,0h0s0,.01-.01.01c0,0,0,0-.01,0,0,0,0,0,0,0,0,0,0,0,0,0,0,0,0,0-.01,0,0,0,0,0,0,0,0,0-.01,0-.02.01,0,0,0,0,0,0,0,0,0,0-.01,0,0,0,0,0,0,0,0,0-.01,0-.02.01,0,0,0,0,0,0,0,0,0,0-.01,0,0,0,0,0,0,0-.01,0-.02.02-.03.02,0,0,0,0,0,0,0,0-.01,0-.02.01h0s-.02.02-.04.03c0,0,0,0,0,0-.01,0-.02.02-.04.03,0,0,0,0,0,0-.01,0-.02.02-.04.03,0,0,0,0,0,0,0,0-.01,0-.02.01,0,0,0,0,0,0-.01,0-.03.02-.04.03,0,0,0,0,0,0-.01,0-.03.02-.04.03,0,0,0,0,0,0-.02.01-.04.03-.06.04,0,0,0,0,0,0-.01,0-.02.02-.04.03,0,0,0,0,0,0-.02.01-.04.03-.06.04,0,0,0,0,0,0-.01,0-.02.02-.04.03,0,0,0,0,0,0-.01,0-.02.02-.04.03,0,0,0,0,0,0,0,0-.01,0-.02.01,0,0,0,0,0,0,0,0-.01,0-.02.01,0,0,0,0,0,0,0,0,0,0-.02.01,0,0,0,0,0,0,0,0-.01,0-.02.01h0s-.01,0-.02.01c0,0,0,0,0,0,0,0,0,0-.01,0,0,0,0,0,0,0,0,0-.01,0-.02.01,0,0,0,0,0,0,0,0,0,0-.01,0,0,0,0,0,0,0,0,0-.01,0-.02.01,0,0,0,0,0,0,0,0,0,0-.01,0,0,0,0,0,0,0,0,0,0,0-.01,0h0s0,.01-.01.01c0,0,0,0,0,0,0,0,0,0,0,0,0,0,0,0,0,0,0,0,0,0-.01,0,0,0,0,0,0,0,0,0,0,0,0,0,0,0,0,0,0,0,0,0,0,0,0,0,0,0-.01,0-.02.01,0,0,0,0,0,0,0,0,0,0,0,0,0,0,0,0,0,0,0,0-.01,0-.02.01h0s0,0-.01,0c0,0,0,0,0,0-.01,0-.02.02-.04.02,0,0,0,0,0,0,0,0,0,0-.01,0,0,0,0,0,0,0,0,0-.02.01-.02.02,0,0,0,0,0,0,0,0,0,0-.01,0,0,0,0,0,0,0l-.04.03h0s-.06.04-.1.06h0c-.08.05-.16.1-.24.15h0s-.03.02-.04.03c0,0,0,0,0,0,0,0,0,0-.01,0h0s-.03.02-.04.03h0s-.03.02-.04.03c0,0,0,0,0,0,0,0,0,0-.01,0h0s-.01.01-.02.02c0,0,0,0,0,0,0,0,0,0-.01,0,0,0,0,0,0,0,0,0,0,0-.01,0,0,0,0,0-.01,0,0,0,0,0,0,0,0,0,0,0,0,0,0,0,0,0,0,0,0,0-.01,0-.02.01,0,0,0,0,0,0,0,0,0,0-.01,0,0,0,0,0,0,0,0,0,0,0-.01,0,0,0,0,0,0,0,0,0-.01,0-.02.01,0,0,0,0,0,0,0,0,0,0-.02,0,0,0,0,0,0,0l-.04.02s0,0,0,0c-.04.02-.08.05-.12.07l1.05,1.7c.88-.55,1.76-1.13,2.61-1.74l-1.17-1.62h0ZM133.74,152.25c-.61.32-1.23.63-1.85.92h0s-.03.01-.04.02c0,0,0,0,0,0,0,0,0,0-.01,0,0,0,0,0,0,0,0,0-.01,0-.02,0,0,0,0,0,0,0,0,0,0,0,0,0,0,0,0,0-.01,0,0,0,0,0,0,0,0,0-.01,0-.02,0,0,0,0,0,0,0,0,0,0,0-.01,0,0,0,0,0,0,0,0,0-.01,0-.02,0,0,0,0,0,0,0,0,0-.01,0-.02,0,0,0,0,0,0,0-.01,0-.03.01-.04.02,0,0,0,0,0,0-.2.09-.4.18-.6.27l.81,1.83c.95-.42,1.9-.88,2.82-1.37l-.94-1.77h0ZM128.27,154.69c-.94.34-1.89.65-2.85.93l.56,1.92c1-.29,2-.62,2.98-.97l-.69-1.88h0ZM122.51,156.36c-.41.09-.81.17-1.22.25h0s-.04,0-.07.01h0s-.03,0-.05,0c0,0,0,0,0,0,0,0,0,0-.01,0,0,0,0,0,0,0-.01,0-.03,0-.04,0,0,0,0,0,0,0h-.01s0,0,0,0c0,0-.01,0-.02,0,0,0,0,0,0,0,0,0,0,0-.01,0,0,0,0,0,0,0,0,0,0,0-.01,0,0,0,0,0-.01,0,0,0,0,0-.01,0,0,0,0,0-.01,0,0,0,0,0,0,0,0,0,0,0-.01,0,0,0,0,0,0,0,0,0-.01,0-.02,0,0,0,0,0,0,0,0,0,0,0-.01,0,0,0,0,0,0,0,0,0-.01,0-.01,0,0,0,0,0,0,0h-.02s0,0,0,0c0,0,0,0-.01,0,0,0,0,0,0,0,0,0-.01,0-.02,0,0,0,0,0,0,0,0,0-.01,0-.02,0,0,0,0,0,0,0,0,0,0,0-.01,0,0,0,0,0,0,0,0,0-.01,0-.02,0,0,0,0,0,0,0,0,0-.01,0-.02,0,0,0,0,0,0,0,0,0,0,0-.01,0,0,0,0,0,0,0,0,0-.01,0-.02,0,0,0,0,0,0,0,0,0,0,0-.01,0,0,0,0,0,0,0,0,0,0,0-.01,0,0,0,0,0,0,0,0,0-.01,0-.02,0h0s0,0-.01,0c0,0,0,0,0,0,0,0,0,0-.01,0,0,0,0,0-.01,0,0,0-.01,0-.01,0,0,0,0,0-.01,0,0,0,0,0-.01,0,0,0,0,0-.01,0,0,0,0,0,0,0,0,0-.02,0-.02,0,0,0,0,0,0,0,0,0,0,0-.01,0,0,0,0,0,0,0-.01,0-.03,0-.04,0,0,0,0,0,0,0,0,0,0,0-.01,0,0,0,0,0,0,0-.02,0-.03,0-.05,0h0c-.26.04-.52.08-.78.12l.29,1.98c1.03-.15,2.07-.34,3.09-.56l-.42-1.95h0ZM116.57,157.23c-.21.02-.42.03-.63.04h0s-.03,0-.05,0h0s-.01,0-.02,0c0,0,0,0,0,0-.01,0-.03,0-.04,0,0,0,0,0,0,0,0,0-.01,0-.02,0,0,0,0,0,0,0,0,0-.01,0-.02,0,0,0,0,0,0,0,0,0-.01,0-.02,0,0,0,0,0,0,0,0,0,0,0-.01,0,0,0,0,0,0,0,0,0,0,0-.01,0,0,0,0,0,0,0,0,0-.01,0-.02,0,0,0,0,0,0,0,0,0,0,0-.01,0,0,0,0,0,0,0,0,0,0,0-.01,0,0,0-.01,0-.02,0,0,0,0,0-.01,0,0,0,0,0-.01,0,0,0,0,0,0,0,0,0,0,0-.01,0,0,0,0,0,0,0-.01,0-.03,0-.04,0,0,0,0,0,0,0h-.01s0,0,0,0c-.02,0-.03,0-.05,0h0c-.4.02-.81.04-1.22.05h0s-.01,0-.02,0h0s-.02,0-.03,0h0s0,0-.01,0c0,0,0,0,0,0,0,0,0,0-.01,0,0,0,0,0,0,0,0,0,0,0-.01,0,0,0-.01,0-.02,0h0s0,0-.01,0h0s-.01,0-.02,0h0s-.01,0-.02,0c0,0,0,0,0,0,0,0-.01,0-.02,0,0,0,0,0,0,0-.15,0-.3,0-.45,0l.02,2c1.04-.01,2.09-.06,3.13-.14l-.16-1.99h0ZM107.59,157.02l-.26,1.98c1.03.13,2.08.23,3.13.29l.11-2c-.58-.03-1.15-.08-1.72-.13h0s-.01,0-.02,0h0s-.02,0-.03,0h0s0,0-.01,0c0,0,0,0,0,0-.01,0-.03,0-.04,0,0,0,0,0,0,0,0,0,0,0-.01,0,0,0,0,0,0,0,0,0-.02,0-.02,0,0,0,0,0,0,0,0,0,0,0-.01,0,0,0,0,0,0,0,0,0,0,0-.01,0,0,0,0,0,0,0h-.02s0,0,0,0c0,0,0,0-.01,0,0,0,0,0,0,0,0,0-.01,0-.02,0,0,0,0,0-.01,0,0,0,0,0-.01,0,0,0,0,0-.01,0,0,0,0,0,0,0,0,0-.01,0-.02,0,0,0,0,0,0,0,0,0,0,0-.01,0,0,0,0,0,0,0,0,0,0,0-.01,0,0,0,0,0,0,0,0,0-.01,0-.02,0,0,0,0,0,0,0,0,0,0,0-.01,0,0,0,0,0,0,0,0,0-.01,0-.02,0,0,0,0,0,0,0,0,0-.01,0-.01,0,0,0,0,0,0,0,0,0-.01,0-.02,0,0,0,0,0,0,0,0,0-.01,0-.02,0,0,0,0,0,0,0,0,0-.01,0-.02,0,0,0,0,0,0,0,0,0-.01,0-.02,0,0,0,0,0,0,0,0,0-.01,0-.02,0,0,0,0,0,0,0-.01,0-.03,0-.04,0,0,0,0,0,0,0,0,0-.01,0-.02,0h0s-.03,0-.05,0c0,0,0,0,0,0-.18-.02-.37-.04-.55-.07h0ZM101.72,155.83l-.53,1.93c1,.28,2.03.53,3.06.73l.4-1.96c-.2-.04-.41-.08-.61-.13h0s0,0-.01,0h0s-.03,0-.04-.01c0,0,0,0,0,0-.01,0-.03,0-.04,0,0,0,0,0,0,0,0,0,0,0-.01,0,0,0,0,0,0,0,0,0-.01,0-.02,0,0,0,0,0,0,0,0,0,0,0-.01,0,0,0,0,0-.01,0,0,0,0,0-.01,0,0,0-.01,0-.01,0,0,0,0,0,0,0,0,0,0,0-.01,0,0,0,0,0,0,0,0,0-.01,0-.02,0,0,0,0,0,0,0,0,0,0,0-.01,0,0,0,0,0,0,0,0,0-.01,0-.02,0,0,0,0,0,0,0,0,0-.01,0-.01,0h0s-.01,0-.02,0c0,0,0,0,0,0,0,0-.01,0-.02,0,0,0,0,0,0,0,0,0-.01,0-.02,0h0s-.01,0-.02,0c0,0,0,0,0,0,0,0-.01,0-.02,0,0,0,0,0,0,0,0,0-.01,0-.02,0,0,0,0,0,0,0,0,0-.01,0-.02,0,0,0,0,0,0,0-.01,0-.03,0-.04,0,0,0,0,0,0,0-.01,0-.03,0-.04-.01,0,0,0,0,0,0,0,0-.01,0-.02,0h0s-.03,0-.05-.01c0,0,0,0,0,0-.01,0-.03,0-.04-.01,0,0,0,0,0,0-.01,0-.03,0-.04-.01,0,0,0,0,0,0-.02,0-.05-.01-.07-.02,0,0,0,0,0,0-.01,0-.03,0-.04-.01,0,0,0,0,0,0-.01,0-.03,0-.04-.01,0,0,0,0,0,0,0,0-.01,0-.02,0h0s-.01,0-.02,0c0,0,0,0,0,0,0,0-.01,0-.02,0,0,0,0,0,0,0-.01,0-.03,0-.04-.01,0,0,0,0,0,0-.01,0-.03,0-.04-.01,0,0,0,0,0,0,0,0-.01,0-.02,0,0,0,0,0,0,0,0,0-.01,0-.02,0,0,0,0,0,0,0,0,0-.01,0-.02,0,0,0,0,0,0,0,0,0-.01,0-.02,0,0,0,0,0,0,0,0,0-.01,0-.02,0,0,0,0,0,0,0,0,0-.01,0-.02,0h0s-.01,0-.02,0c0,0,0,0,0,0,0,0-.01,0-.01,0,0,0,0,0,0,0,0,0-.01,0-.02,0,0,0,0,0,0,0,0,0,0,0-.01,0,0,0,0,0,0,0,0,0-.01,0-.02,0,0,0,0,0,0,0,0,0,0,0-.01,0,0,0,0,0,0,0,0,0,0,0-.01,0,0,0,0,0-.01,0,0,0,0,0-.01,0,0,0,0,0-.01,0,0,0,0,0,0,0,0,0-.01,0-.02,0,0,0,0,0,0,0,0,0,0,0-.01,0,0,0,0,0,0,0-.01,0-.03,0-.04-.01,0,0,0,0,0,0,0,0,0,0-.01,0h0s-.02,0-.03,0c0,0,0,0,0,0-.26-.07-.52-.14-.77-.21h0ZM96.07,153.82l-.8,1.83c.96.42,1.94.81,2.92,1.16l.67-1.88c-.95-.34-1.87-.71-2.79-1.11h0ZM90.77,151.02l-1.06,1.7c.89.55,1.8,1.08,2.72,1.56l.93-1.77c-.89-.47-1.75-.97-2.6-1.49h0ZM85.91,147.5l-1.29,1.53c.8.67,1.63,1.32,2.48,1.93l1.17-1.62c-.76-.55-1.5-1.13-2.23-1.73h0s-.01-.01-.02-.02c0,0,0,0,0,0,0,0,0,0,0,0,0,0,0,0,0,0,0,0,0,0,0,0,0,0,0,0-.01-.01h0s0-.01-.01-.02c0,0,0,0,0,0,0,0-.01,0-.02-.01,0,0,0,0,0,0,0,0-.01,0-.02-.01t0,0s-.01,0-.02-.01h0ZM81.6,143.33l-1.49,1.34c.7.78,1.43,1.54,2.18,2.26l1.39-1.44c-.69-.67-1.36-1.37-2.01-2.08h0s-.02-.02-.03-.03h0s0,0,0-.01h0s-.01-.01-.02-.02c0,0,0,0,0,0,0,0,0,0,0,0h0ZM77.93,138.6l-1.66,1.11c.58.87,1.2,1.72,1.84,2.55l1.58-1.23c-.07-.09-.14-.19-.21-.28,0,0,0,0,0,0,0,0,0-.01-.01-.02,0,0,0,0,0,0,0,0,0-.01-.01-.02,0,0,0,0,0,0,0,0,0,0,0,0,0,0,0,0,0,0,0,0,0,0,0,0,0,0,0-.01-.01-.02,0,0,0,0,0,0-.51-.67-1-1.36-1.48-2.07h0ZM74.95,133.39l-1.8.86c.45.94.94,1.88,1.46,2.78l1.74-.99c-.49-.87-.96-1.75-1.39-2.66h0ZM72.75,127.82l-1.91.6c.31,1,.67,1.99,1.05,2.96l1.86-.73c-.28-.7-.53-1.41-.77-2.12h0s0-.03-.01-.04c0,0,0,0,0,0,0,0,0,0,0-.01,0,0,0,0,0,0,0,0,0-.02,0-.02,0,0,0,0,0,0,0,0,0,0,0-.01,0,0,0,0,0,0,0,0,0-.01,0-.02,0,0,0,0,0,0,0,0,0,0,0,0,0,0,0,0,0-.01,0,0,0,0,0-.01,0,0,0,0,0-.01,0,0,0,0,0,0,0,0,0-.01,0-.01,0,0,0,0,0,0,0,0,0-.01,0-.02,0,0,0,0,0,0,0,0,0-.01,0-.02,0,0,0,0,0,0,0,0,0-.01,0-.02,0,0,0,0,0,0,0,0,0-.01,0-.02h0c-.04-.13-.09-.27-.13-.4h0ZM71.37,121.98l-1.97.32c.17,1.03.37,2.07.61,3.08l1.95-.46c-.23-.97-.43-1.95-.59-2.94h0ZM70.83,116.01l-2,.04c.02,1.04.08,2.1.17,3.14l1.99-.18c-.09-.99-.14-1.99-.17-3h0ZM70.82,110.01h-2s0,3,0,3h2s0-3,0-3h0ZM70.81,104.01h-2s0,3,0,3h2s0-3,0-3h0ZM70.8,98.01h-2s0,3,0,3h2s0-3,0-3h0ZM69.59,92.2l-1.8.88c.36.75.63,1.54.8,2.36l1.96-.4c-.16-.8-.41-1.58-.73-2.33,0,0,0,0,0,0,0-.01,0-.02-.01-.03,0,0,0,0,0,0,0,0,0,0,0,0h0s0-.02,0-.02c0,0,0,0,0,0,0,0,0,0,0,0,0,0,0,0,0,0,0,0,0,0,0,0,0,0,0,0,0,0,0,0,0,0,0-.01,0,0,0,0,0,0,0,0,0,0,0,0,0,0,0,0,0,0,0,0,0,0,0,0,0,0,0,0,0,0,0,0,0,0,0,0,0,0,0,0,0,0,0,0,0,0,0,0,0,0,0,0,0,0,0,0,0,0,0,0,0,0,0,0,0,0,0,0,0,0,0,0,0,0,0-.01,0-.02,0,0,0,0,0,0,0,0,0,0,0,0,0,0,0,0,0,0,0,0,0,0,0,0,0,0,0,0,0,0,0,0,0-.01,0-.02h0c-.04-.1-.09-.19-.13-.29h0ZM65.87,87.54l-1.42,1.41,1.43,1.44c.19.19.37.39.55.6l1.53-1.29c-.07-.08-.14-.16-.21-.24,0,0,0,0,0,0,0,0-.01-.01-.02-.02,0,0,0,0,0,0,0,0,0,0,0,0,0,0,0,0,0,0,0,0,0,0,0,0,0,0,0,0,0,0,0,0,0,0,0,0,0,0,0,0,0,0h0s0-.01,0-.01c0,0,0,0,0,0,0,0,0,0,0,0,0,0,0,0,0,0,0,0,0,0,0,0,0,0,0,0,0,0,0,0,0,0,0,0,0,0,0,0,0,0,0,0,0,0-.01-.01,0,0,0,0,0,0,0,0,0,0,0,0,0,0,0,0,0,0,0,0,0,0-.01-.01,0,0,0,0,0,0-.07-.08-.15-.16-.23-.24,0,0,0,0,0,0,0,0,0,0-.01-.01,0,0,0,0,0,0,0,0,0,0,0,0,0,0,0,0,0,0,0,0,0,0,0,0h0s0,0,0-.01c0,0,0,0,0,0,0,0,0,0,0,0,0,0,0,0,0,0,0,0,0,0,0,0,0,0,0,0,0,0,0,0,0,0,0,0,0,0,0,0,0,0,0,0,0,0,0,0,0,0,0,0,0,0h0s0,0,0,0h0,0,0s0,0,0,0h0s0,0,0,0h0s0,0,0,0h0s0,0,0,0h0s0,0,0,0l-1.43-1.43h0ZM61.63,83.29l-1.42,1.41,2.12,2.12,1.42-1.41-2.12-2.12h0ZM57.39,79.04l-1.42,1.41,2.12,2.12,1.42-1.41-2.12-2.12h0ZM53.16,74.8l-1.42,1.41,2.12,2.12,1.42-1.41-2.12-2.12h0ZM48.92,70.55l-1.42,1.41,2.12,2.12,1.42-1.41s-.24-.24-.55-.55l-1.57-1.57h0ZM44.68,66.3l-.51.51v1.81h0v2.45h2v-2.02l.63-.63s-.43-.43-.9-.9l-1.22-1.22h0ZM46.17,74.07h-2v3h2v-3h0ZM46.17,80.07h-2v3h2v-3h0ZM46.17,86.07h-2v3h2v-3h0ZM46.17,92.07h-2v3h2v-3h0ZM46.17,98.07h-2v3h2v-3h0ZM46.17,104.07h-2v3h2v-3h0ZM46.17,110.07h-2v3h2v-3h0ZM46.17,116.07h-2v3h2v-3h0ZM46.17,122.07h-2v3h2v-3h0ZM46.17,128.07h-2v3h2v-3h0ZM46.17,134.07h-2v3h2v-3h0ZM46.17,140.07h-2v3h2v-3h0ZM46.17,146.07h-2v3h2v-3h0ZM46.17,152.07h-2v3h2v-3h0ZM46.17,158.07h-2v3h2v-3h0ZM46.17,164.07h-2v3h2v-3h0ZM46.17,170.07h-2v1.88h0v.02h0s0,0,0,0h0s0,0,0,0h0s0,0,0,0h0s0,0,0,0c0,0,0,0,0,0,0,0,0,0,0,0h0s0,0,0,0h0s0,.02,0,.02h0s0,0,0,0c0,0,0,0,0,0,0,0,0,0,0,0,0,0,0,0,0,0,0,0,0,0,0,0,0,0,0,0,0,0h0s0,.01,0,.02c0,0,0,0,0,0,0,0,0,0,0,0,0,0,0,0,0,0,0,.29.02.58.04.87,0,0,0,0,0,0,0,0,0,0,0,0,0,0,0,0,0,0,0,0,0,0,0,0,0,0,0,0,0,0,0,0,0,0,0,0,0,0,0,0,0,0,0,0,0,0,0,0,0,0,0,0,0,0,0,0,0,0,0,0,0,.02,0,.03,0,.05l1.99-.18c-.03-.31-.04-.63-.04-.94v-1.88h0ZM46.75,175.32l-1.88.67c.06.17.12.34.19.5,0,0,0,0,0,0,0,0,0,.02.01.03,0,0,0,0,0,0,0,0,0,0,0,0,0,0,0,0,0,0,0,0,0,0,0,0,0,0,0,0,0,0,0,0,0,0,0,0h0s0,.01,0,.01c0,0,0,0,0,0,0,0,0,0,0,0,0,0,0,0,0,0,0,0,0,0,0,0,0,0,0,0,0,0h0s0,0,0,.01c0,0,0,0,0,0,0,0,0,0,0,0,0,0,0,0,0,0,0,0,0,0,0,0h0c.27.65.6,1.27.97,1.85,0,0,0,0,0,0,0,0,0,0,0,0,0,0,0,0,0,0,0,0,0,.01.01.02,0,0,0,0,0,0,0,0,0,0,0,0,0,0,0,0,0,0,0,0,0,0,0,0,0,0,0,0,0,0,0,0,0,0,0,0,0,0,0,0,0,0,0,0,0,0,0,0,0,0,0,0,0,0,0,0,0,0,0,0,0,0,0,0,0,0,0,0,0,0,0,0,0,0,0,0,0,0,0,0,0,0,0,0,0,0,0,0,0,0,0,0,0,0,0,0,0,0,0,0,0,0,0,0,0,0,0,0,0,0,0,0,0,0,0,0,0,0,0,0,0,0,0,.01.01.02,0,0,0,0,0,0,0,0,0,0,0,0,0,0,0,0,0,0,0,.01.02.03.03.04l1.66-1.11c-.47-.7-.84-1.45-1.12-2.23h0ZM49.51,179.44l-1.34,1.48c.38.34.78.66,1.2.95h0s.02.01.03.02h0s0,0,0,0h0s.01,0,.02.01c0,0,0,0,0,0,0,0,0,0,0,0,0,0,0,0,0,0,0,0,0,0,0,0,0,0,0,0,0,0,0,0,.01,0,.02.01,0,0,0,0,0,0h0s0,0,0,0c0,0,0,0,0,0,0,0,0,0,0,0,0,0,0,0,0,0,0,0,0,0,0,0,0,0,0,0,0,0,0,0,0,0,0,0,0,0,0,0,0,0,0,0,0,0,0,0,0,0,0,0,0,0h0s0,0,0,0c0,0,0,0,0,0,0,0,0,0,0,0,0,0,0,0,0,0,0,0,0,0,0,0,0,0,0,0,0,0,0,0,0,0,0,0,0,0,0,0,0,0,0,0,0,0,0,0,0,0,0,0,0,0,0,0,0,0,0,0,0,0,0,0,0,0,0,0,0,0,0,0,0,0,0,0,0,0,0,0,0,0,0,0,0,0,0,0,0,0,0,0,0,0,0,0,0,0,0,0,0,0,0,0,0,0,0,0,0,0,0,0,0,0,0,0,0,0,0,0,0,0,0,0,.01,0,0,0,0,0,0,0,0,0,0,0,0,0,0,0,0,0,0,0,0,0,0,0,0,0,0,0,0,0,0,0,0,0,.01,0,.02.01,0,0,0,0,0,0,0,0,0,0,0,0,0,0,0,0,0,0,0,0,.02.01.03.02,0,0,0,0,0,0,0,0,0,0,0,0h0c.29.19.59.36.9.53l.94-1.76c-.74-.39-1.43-.88-2.05-1.44h0ZM53.89,181.78l-.48,1.94c.29.07.58.13.87.18h0s0,0,.01,0c0,0,0,0,0,0,0,0,.01,0,.02,0h0s0,0,.01,0c0,0,0,0,0,0,0,0,0,0,0,0,0,0,0,0,0,0h0s0,0,0,0c0,0,0,0,0,0,0,0,0,0,0,0,0,0,0,0,.01,0,0,0,0,0,0,0,0,0,0,0,0,0,0,0,0,0,0,0,0,0,0,0,0,0,0,0,0,0,0,0,0,0,0,0,0,0,0,0,0,0,0,0,0,0,0,0,0,0,0,0,0,0,0,0,0,0,0,0,0,0,0,0,0,0,0,0,0,0,0,0,0,0,0,0,0,0,0,0,0,0,0,0,0,0,0,0,0,0,0,0h0s.02,0,.02,0h0s0,0,0,0c0,0,0,0,0,0,0,0,0,0,0,0,0,0,0,0,0,0,.01,0,.02,0,.04,0h0s0,0,0,0c0,0,0,0,0,0,0,0,0,0,0,0h0s.03,0,.05,0h0c.58.08,1.17.13,1.77.13v-2c-.84,0-1.68-.1-2.49-.3h0ZM62.38,182.09h-3v2h3v-2h0ZM68.38,182.09h-3v2h3v-2h0ZM74.38,182.09h-3v2h3v-2h0ZM80.38,182.09h-3v2h3v-2h0ZM86.38,182.09h-3v2h3v-2h0ZM92.38,182.09h-3v2h3v-2h0ZM98.38,182.09h-3v2h3v-2h0ZM104.38,182.09h-3v2h3v-2h0ZM110.38,182.09h-3v2h3v-2h0ZM116.31,182.04c-.83.03-1.67.04-2.5.04h-.43v2h.56s.02,0,.03,0h.05s.02,0,.03,0h.05s.02,0,.04,0h0s.02,0,.03,0h0s.05,0,.07,0c0,0,0,0,0,0h.03s0,0,0,0c.01,0,.03,0,.04,0h0s.02,0,.03,0h0s.05,0,.08,0h0s.05,0,.08,0h0s.02,0,.04,0h0s.05,0,.08,0h0c.58,0,1.15-.02,1.72-.04l-.07-2h0ZM122.12,181.59c-.96.11-1.94.21-2.9.28l.15,1.99c.29-.02.58-.05.87-.07,0,0,0,0,0,0,0,0,.01,0,.02,0,0,0,0,0,0,0,0,0,.01,0,.02,0,0,0,0,0,0,0,.02,0,.04,0,.05,0,0,0,0,0,0,0,0,0,.01,0,.02,0,0,0,0,0,.01,0,0,0,.01,0,.02,0,0,0,0,0,.01,0,0,0,0,0,.01,0,0,0,0,0,.01,0,0,0,0,0,.01,0,0,0,.01,0,.02,0,0,0,0,0,.01,0,0,0,0,0,.01,0,0,0,0,0,.01,0,0,0,.01,0,.02,0,0,0,0,0,0,0,0,0,.01,0,.02,0,0,0,0,0,0,0,0,0,.01,0,.02,0h0s.05,0,.07,0h0s.01,0,.02,0h0c.56-.05,1.12-.11,1.67-.18l-.24-1.99h0ZM127.88,180.66c-.95.19-1.91.37-2.87.53l.32,1.97c.74-.12,1.48-.25,2.21-.4,0,0,0,0,0,0,0,0,.01,0,.02,0,0,0,0,0,0,0h.02s0,0,0,0c0,0,.01,0,.02,0h0s.02,0,.03,0c0,0,0,0,.01,0,0,0,0,0,.01,0,0,0,.01,0,.02,0,0,0,0,0,0,0,0,0,.01,0,.02,0,0,0,0,0,0,0,.19-.04.37-.07.56-.11l-.4-1.96h0ZM133.53,179.24c-.93.27-1.87.53-2.81.77l.49,1.94c.7-.18,1.39-.36,2.08-.56h0s.01,0,.02,0h0s.01,0,.02,0c0,0,0,0,0,0,0,0,.01,0,.02,0,0,0,0,0,.01,0,0,0,0,0,.01,0,0,0,.02,0,.02,0,0,0,0,0,0,0,0,0,.01,0,.02,0,0,0,0,0,0,0,0,0,.01,0,.02,0,0,0,0,0,0,0,0,0,.01,0,.02,0,0,0,0,0,0,0,.21-.06.41-.12.62-.18l-.57-1.92h0ZM139.05,177.35c-.9.35-1.82.69-2.74,1l.65,1.89c.95-.33,1.89-.67,2.82-1.03l-.73-1.86h0ZM144.38,175c-.87.43-1.76.84-2.64,1.23l.81,1.83c.92-.4,1.82-.83,2.72-1.27l-.88-1.79h0ZM149.5,172.21c-.83.5-1.68.99-2.53,1.45l.96,1.76c.46-.25.91-.5,1.36-.76,0,0,0,0,0,0,0,0,.01,0,.02-.01,0,0,0,0,0,0,0,0,.01,0,.02-.01h0s.06-.03.09-.05c0,0,0,0,0,0,0,0,.01,0,.02-.01,0,0,0,0,0,0,0,0,.01,0,.01,0,0,0,0,0,0,0,0,0,.01,0,.01,0,0,0,0,0,0,0,0,0,.01,0,.01,0h0s.01-.01.02-.01c0,0,0,0,0,0,0,0,.01,0,.02-.01,0,0,0,0,0,0h.01s0-.01.01-.01,0,0,0,0c0,0,0,0,.01,0,0,0,0,0,0,0,0,0,0,0,.01,0,0,0,0,0,0,0,0,0,.01,0,.02,0,0,0,0,0,0,0,.29-.17.58-.34.86-.51l-1.03-1.71h0ZM154.36,168.99c-.78.57-1.59,1.13-2.4,1.66l1.1,1.67c.06-.04.12-.08.18-.12,0,0,0,0,0,0,0,0,.01,0,.02-.01,0,0,0,0,0,0,.03-.02.06-.04.09-.06,0,0,0,0,0,0,0,0,.01,0,.02-.01,0,0,0,0,0,0,0,0,.01,0,.02-.01,0,0,0,0,0,0,0,0,.01,0,.02-.01,0,0,0,0,0,0,0,0,0,0,.01-.01,0,0,0,0,0,0,0,0,.01,0,.02-.01,0,0,0,0,0,0,.02-.01.04-.03.06-.04,0,0,0,0,0,0,0,0,.01,0,.02-.01,0,0,0,0,0,0,0,0,.01,0,.02-.01,0,0,0,0,0,0,0,0,.01,0,.02-.01,0,0,0,0,0,0,0,0,.01,0,.02-.01,0,0,0,0,0,0,.03-.02.06-.04.09-.06,0,0,0,0,0,0,0,0,.01,0,.02-.01,0,0,0,0,0,0,0,0,.01,0,.02-.01,0,0,0,0,0,0,0,0,.01,0,.02-.01,0,0,0,0,0,0,.04-.03.07-.05.11-.07,0,0,0,0,0,0,0,0,.01,0,.02-.01h0s.01,0,.02-.01h0c.54-.37,1.07-.74,1.6-1.12l-1.17-1.62h0ZM158.93,165.38c-.73.63-1.49,1.26-2.25,1.86l1.24,1.57c.13-.11.27-.21.4-.32h0s0,0,.01-.01c0,0,0,0,0,0,0,0,0,0,0,0,0,0,0,0,.01,0h0s0-.01.01-.02c0,0,0,0,0,0,0,0,0,0,.01,0,0,0,0,0,0,0,0,0,.01,0,.02-.01,0,0,0,0,0,0,.61-.49,1.21-.99,1.8-1.5l-1.31-1.52h0ZM163.18,161.39c-.68.69-1.38,1.38-2.08,2.04l1.37,1.46s.01-.01.02-.02c0,0,0,0,0,0,0,0,.01-.01.02-.02,0,0,.01-.01.02-.02,0,0,0,0,.01-.01,0,0,.01-.01.02-.02,0,0,0,0,0,0,0,0,.02-.02.02-.02,0,0,0,0,0,0,.01,0,.02-.02.03-.03,0,0,0,0,0,0,.01-.01.02-.02.03-.03h0c.62-.59,1.24-1.19,1.84-1.8h0s.02-.02.03-.03h0s.02-.02.03-.03h0s.02-.02.03-.03h0s-1.43-1.4-1.43-1.4h0ZM167.08,157.06c-.62.75-1.26,1.49-1.9,2.21l1.49,1.34c.3-.33.6-.67.89-1.01,0,0,0,0,0,0,0,0,.01-.01.02-.02,0,0,0,0,0,0,0,0,0-.01.02-.02,0,0,0,0,0,0,0,0,0-.01.01-.02,0,0,0,0,0,0,0,0,0-.01.02-.02,0,0,0,0,0,0,.02-.02.03-.04.05-.06h0s0-.01.01-.02c0,0,0,0,0,0,0,0,0,0,0-.01,0,0,0,0,0,0,0,0,0,0,0-.01,0,0,0,0,0,0,0,0,0,0,0-.01,0,0,0,0,0,0,0,0,0,0,0,0h0s0-.02,0-.02c0,0,0-.01.01-.02,0,0,0,0,0,0,0,0,0,0,0-.01,0,0,0,0,0,0,0,0,0,0,0-.01,0,0,0,0,0,0,0,0,0,0,.01-.01,0,0,0,0,0,0,0,0,0,0,.01-.01,0,0,0,0,0,0,0,0,0,0,.01-.01,0,0,0,0,0,0,0,0,0,0,.01-.01h0s.05-.06.08-.09h0c.22-.26.44-.53.66-.79l-1.54-1.27h0ZM170.6,152.41c-.55.79-1.13,1.59-1.71,2.36l1.59,1.21c.08-.11.16-.21.24-.32,0,0,0,0,0,0,0,0,0-.01.01-.02,0,0,0,0,0,0,0,0,0-.01.01-.02h0s0-.01.01-.02c0,0,0,0,0,0,0,0,0-.01.01-.02,0,0,0,0,0,0,0,0,.01-.01.02-.02t0,0s.02-.03.03-.04c0,0,0,0,0,0,0,0,0-.01.01-.02,0,0,0,0,0,0,0,0,0,0,0-.01,0,0,0,0,0,0,0,0,0,0,0-.01,0,0,0,0,0,0,0,0,0,0,0-.01,0,0,0,0,0,0,0,0,0,0,.01-.01,0,0,0,0,0,0,.01-.01.02-.03.03-.04,0,0,0,0,0,0,0,0,0-.01.01-.02,0,0,0,0,0,0,0,0,0,0,.01-.01h0s0-.02,0-.02c0,0,0,0,0,0,0,0,0,0,0-.01,0,0,0,0,0,0,0,0,0,0,0-.01,0,0,0,0,0,0,0,0,0,0,.01-.01,0,0,0,0,0,0,0,0,0-.01.01-.02,0,0,0,0,0,0,0,0,0-.01.01-.02,0,0,0,0,0,0,0,0,0,0,0-.01,0,0,0,0,0,0,0,0,0,0,0-.01,0,0,0,0,0,0,0,0,0,0,0-.01h0s0-.02,0-.02c0,0,0,0,0,0,0,0,0-.01.01-.01,0,0,0,0,0,0,0,0,0-.01.01-.02,0,0,0,0,0,0,0,0,0-.01.01-.02,0,0,0,0,0,0,0,0,0-.01.01-.02,0,0,0,0,0,0,0,0,0,0,.01-.01,0,0,0,0,0,0,0,0,0,0,0-.01,0,0,0,0,0,0,0,0,0,0,0-.01,0,0,0,0,0,0,0,0,0,0,0-.01,0,0,0,0,0,0,0,0,0-.01.01-.02,0,0,0,0,0,0,.01-.01.02-.03.03-.04,0,0,0,0,0,0,0,0,0-.01.01-.02,0,0,0,0,0,0,0,0,0,0,.01-.01,0,0,0,0,0,0,0,0,0-.01,0-.01,0,0,0,0,0,0,0,0,0,0,0-.01,0,0,0,0,0,0,0,0,0-.01.01-.01h0s0-.02.01-.02c0,0,0,0,0,0,.01-.01.02-.03.03-.04,0,0,0,0,0,0,0,0,0-.01.01-.02,0,0,0,0,0,0,0,0,0-.01.01-.01,0,0,0,0,0,0,0,0,0-.01,0-.01,0,0,0,0,0,0,0,0,0-.01,0-.01,0,0,0,0,0,0,0,0,0,0,0-.01,0,0,0,0,0,0,0,0,0-.01.01-.02h0s0-.02.01-.03c0,0,0,0,0,0,0,0,0-.01.01-.02,0,0,0,0,0,0,0,0,0,0,0-.01h0s0-.02,0-.02c0,0,0,0,0,0,0,0,0,0,0-.01h0s0-.02,0-.02c0,0,0,0,0-.01,0,0,0,0,0-.01,0,0,0,0,0,0,0,0,0,0,.01-.02,0,0,0,0,0,0,0,0,0-.01.01-.02h0s0-.02,0-.02c0,0,0,0,0-.01,0,0,0,0,0-.01,0,0,0,0,0-.01,0,0,0,0,0-.01,0,0,0,0,0-.01,0,0,0,0,0,0,0,0,0,0,0-.01,0,0,0,0,0,0,0,0,0,0,0-.01,0,0,0,0,0,0,.01-.02.02-.03.03-.05,0,0,0,0,0,0,0,0,0,0,0-.01,0,0,0,0,0,0,0,0,0,0,0-.01,0,0,0,0,0,0h0s0-.02,0-.02c0,0,0-.01.01-.01,0,0,0,0,0,0,0,0,0-.01.01-.02h0c.13-.19.26-.37.39-.56l-1.64-1.14h0ZM173.72,147.48c-.48.84-.99,1.68-1.5,2.5l1.69,1.07c.43-.68.84-1.36,1.25-2.05,0,0,0,0,0,0,0,0,0-.01.01-.02,0,0,0,0,0,0,0,0,0-.01.01-.02,0,0,0,0,0,0,0,0,0-.01.01-.02,0,0,0,0,0,0,0,0,0-.01,0-.02,0,0,0,0,0,0,0,0,0-.01.01-.02,0,0,0,0,0,0,0,0,0-.01.01-.02,0,0,0,0,0-.01,0,0,0,0,0-.01,0,0,0,0,0-.01,0,0,0,0,0,0h0s0-.02,0-.02c0,0,0,0,0-.01h0s0-.02,0-.02c0,0,0,0,0,0,.05-.09.11-.19.16-.28l-1.73-1h0ZM176.4,142.31c-.41.88-.84,1.76-1.28,2.62l1.78.92c.07-.14.14-.28.21-.42h0s0-.01,0-.02c0,0,0,0,0,0,0,0,0-.01,0-.02,0,0,0,0,0,0,0,0,0,0,0-.01,0,0,0,0,0,0,0,0,0,0,0-.01s0-.01,0-.01h0c.36-.72.72-1.45,1.06-2.18l-1.81-.84h0ZM178.62,136.93c-.33.91-.69,1.82-1.05,2.72l1.85.76c.38-.92.74-1.85,1.09-2.8l-1.88-.68h0ZM180.38,131.37c-.25.93-.53,1.87-.82,2.8l1.91.6c.06-.2.13-.4.19-.6,0,0,0,0,0,0,0,0,0-.01,0-.02h0s.01-.04.02-.06c0,0,0,0,0-.01,0,0,0,0,0-.01,0,0,0-.01,0-.01,0,0,0,0,0,0,0,0,0-.01,0-.02,0,0,0,0,0,0,0,0,0-.01,0-.02,0,0,0,0,0,0,0,0,0-.01,0-.02,0,0,0,0,0,0,0-.03.02-.05.02-.08,0,0,0,0,0,0,.2-.66.39-1.33.57-2l-1.93-.52h0ZM181.64,125.68c-.17.95-.36,1.91-.57,2.86l1.95.44c.13-.58.25-1.16.36-1.74h0s.02-.09.03-.13c0,0,0,0,0,0,0,0,0-.01,0-.02,0,0,0,0,0,0,0,0,0-.01,0-.02,0,0,0,0,0-.01,0,0,0,0,0-.01h0s0-.02,0-.03c0,0,0-.01,0-.02,0,0,0,0,0,0,0,0,0-.01,0-.02,0,0,0,0,0,0,0,0,0-.01,0-.02,0,0,0,0,0,0,0,0,0-.01,0-.02,0,0,0,0,0,0,.06-.29.11-.57.16-.86l-1.97-.35h0ZM182.42,119.91c-.09.96-.2,1.94-.33,2.9l1.98.27c.07-.49.13-.97.18-1.46h0s0-.02,0-.02c0,0,0,0,0,0,0,0,0-.01,0-.02h0s0-.04,0-.06c0,0,0,0,0-.01,0,0,0,0,0-.01s0,0,0-.01c0,0,0,0,0-.01,0,0,0,0,0-.01,0,0,0,0,0-.01,0,0,0-.01,0-.02,0,0,0,0,0,0,0-.02,0-.03,0-.05,0,0,0,0,0,0,0,0,0-.01,0-.02,0,0,0,0,0,0,0,0,0-.01,0-.02,0,0,0,0,0,0,.04-.4.08-.8.12-1.2l-1.99-.18h0ZM182.7,114.09c0,.97-.03,1.95-.08,2.91l2,.1c.03-.7.06-1.4.07-2.11,0,0,0,0,0,0,0,0,0-.01,0-.02h0s0-.02,0-.03c0,0,0,0,0-.01,0,0,0,0,0-.01,0-.02,0-.04,0-.06,0,0,0,0,0,0,0,0,0-.01,0-.02h0c0-.24,0-.49,0-.73h-2ZM184.48,108.1l-1.99.16c.08.96.13,1.94.17,2.91l2-.07c0-.2-.02-.41-.02-.61,0,0,0,0,0,0,0,0,0-.01,0-.02,0,0,0,0,0,0,0,0,0-.01,0-.02,0,0,0,0,0-.01,0,0,0,0,0-.01,0,0,0-.02,0-.02,0,0,0,0,0,0,0,0,0-.02,0-.03,0,0,0,0,0,0,0,0,0-.01,0-.02,0,0,0,0,0,0,0,0,0-.02,0-.03,0,0,0,0,0,0-.04-.74-.08-1.47-.14-2.2h0ZM183.76,102.15l-1.97.33c.16.95.3,1.92.41,2.88l1.99-.24c-.02-.18-.04-.35-.07-.53,0,0,0,0,0,0,0,0,0-.01,0-.02,0,0,0,0,0-.01,0,0,0,0,0-.01,0,0,0,0,0-.01h0s0-.02,0-.03c0,0,0,0,0,0,0,0,0-.02,0-.03,0,0,0,0,0,0,0,0,0-.01,0-.02,0,0,0,0,0,0,0,0,0-.01,0-.02,0,0,0,0,0,0,0,0,0-.01,0-.02,0,0,0,0,0,0-.1-.75-.21-1.49-.33-2.23h0ZM182.52,96.28l-1.94.5c.24.94.46,1.89.66,2.84l1.96-.41c-.08-.37-.16-.75-.24-1.12,0,0,0,0,0,0,0,0,0-.01,0-.02,0,0,0,0,0-.01,0,0,0,0,0-.01,0,0,0,0,0-.01,0,0,0,0,0-.01,0,0,0,0,0-.01,0,0,0,0,0-.01,0-.02,0-.03-.01-.05,0,0,0,0,0,0,0,0,0-.02,0-.02,0,0,0,0,0,0,0,0,0-.01,0-.02,0,0,0,0,0,0-.12-.54-.25-1.07-.39-1.6h0ZM180.78,90.54l-1.89.66c.32.91.62,1.84.9,2.77l1.91-.58c-.02-.08-.05-.16-.07-.23,0,0,0,0,0,0,0,0,0-.01,0-.02,0,0,0,0,0,0,0,0,0-.01,0-.02,0,0,0,0,0,0,0,0,0-.01,0-.02,0,0,0,0,0,0,0,0,0-.01,0-.02,0,0,0,0,0-.01,0,0,0,0,0-.01,0,0,0,0,0-.01,0,0,0,0,0-.01,0,0,0-.01,0-.02,0,0,0,0,0,0v-.02s0,0,0,0c-.25-.81-.52-1.62-.8-2.42h0ZM178.56,84.97l-1.82.82c.4.88.78,1.78,1.14,2.68l1.86-.74c-.16-.39-.32-.78-.48-1.17h0s0-.02,0-.02h0s0-.01,0-.02h0s-.02-.05-.03-.08c0,0,0,0,0,0,0,0,0-.01,0-.01,0,0,0,0,0,0,0,0,0,0,0-.01,0,0,0,0,0,0,0,0,0,0,0-.01,0,0,0,0,0,0,0,0,0,0,0-.01,0,0,0,0,0-.01,0-.02-.01-.03-.02-.05,0,0,0,0,0,0,0,0,0,0,0-.01,0,0,0,0,0-.01,0,0,0,0,0,0,0,0,0,0,0-.01,0,0,0,0,0-.01,0,0,0-.01,0-.01,0,0,0,0,0,0,0,0,0-.01,0-.02,0,0,0,0,0,0-.01-.02-.02-.05-.03-.07t0,0s0-.02-.01-.02c0,0,0,0,0,0,0,0,0-.01,0-.02,0,0,0,0,0,0-.16-.36-.31-.72-.48-1.08h0ZM175.87,79.61l-1.75.97c.47.84.93,1.71,1.36,2.57l1.79-.9c-.11-.22-.23-.45-.34-.67h0s-.04-.08-.06-.12h0s0-.01,0-.02h0s0-.01,0-.02h0s0-.02,0-.02c0,0,0,0,0,0,0,0,0-.01,0-.02h0s-.03-.05-.04-.08c0,0,0,0,0,0,0,0,0-.01,0-.02,0,0,0,0,0,0,0,0,0,0,0-.01,0,0,0,0,0,0,0,0,0,0,0-.01,0,0,0,0,0,0h0s0-.02,0-.02c0,0,0,0,0-.01,0,0,0,0,0,0,0-.02-.02-.03-.03-.05,0,0,0,0,0,0,0,0,0,0,0-.01,0,0,0,0,0-.01h0s0-.02,0-.02c0,0,0,0,0-.01,0,0,0,0,0-.01,0,0,0,0,0-.01,0,0,0,0,0-.01,0,0,0,0,0,0,0,0,0-.01-.01-.02,0,0,0,0,0,0,0,0,0-.01-.01-.02,0,0,0,0,0,0,0,0,0-.01,0-.02h0s0-.02,0-.02c0,0,0,0,0,0,0,0,0-.01,0-.02,0,0,0,0,0,0,0,0,0-.01,0-.02h0s0-.02,0-.02h0s-.03-.07-.05-.1c0,0,0,0,0,0,0,0,0-.01-.01-.02,0,0,0,0,0,0,0,0,0-.01-.01-.02,0,0,0,0,0,0-.2-.37-.4-.75-.61-1.12h0ZM172.72,74.5l-1.66,1.12c.54.8,1.07,1.63,1.58,2.45l1.7-1.05c-.13-.21-.26-.42-.39-.63,0,0,0,0,0,0,0,0,0,0,0-.01,0,0,0,0,0-.01,0,0,0,0,0,0,0,0,0,0,0-.01,0,0,0,0,0,0,0,0,0-.01-.01-.02h0c-.26-.42-.53-.84-.81-1.25,0,0,0,0,0,0,0,0,0-.01-.01-.02,0,0,0,0,0,0,0,0,0,0,0-.01,0,0,0,0,0-.01s0,0,0,0c0,0,0,0,0-.01,0,0,0,0,0,0,0,0,0,0,0-.01h0c-.1-.16-.21-.31-.31-.47h0ZM169.16,69.68l-1.56,1.26c.61.75,1.21,1.53,1.78,2.31l1.61-1.19c-.59-.8-1.21-1.6-1.83-2.37h0ZM165.2,65.17l-1.44,1.38c.67.7,1.33,1.42,1.97,2.15l1.5-1.32c-.66-.75-1.34-1.49-2.03-2.21h0ZM160.87,61.02l-1.32,1.5c.73.64,1.45,1.3,2.15,1.97l1.39-1.44c-.29-.28-.58-.55-.87-.83,0,0,0,0,0,0,0,0,0,0-.02-.01,0,0,0,0,0,0,0,0,0,0-.01-.01,0,0,0,0,0,0,0,0,0,0-.01-.01,0,0,0,0,0,0,0,0,0,0-.01-.01,0,0,0,0,0,0,0,0,0,0,0,0-.01-.01-.03-.03-.04-.04h0s0-.01-.01-.01c0,0,0,0,0,0,0,0,0,0-.01-.01h0s-.01-.01-.02-.02c0,0,0,0,0,0-.38-.35-.76-.69-1.15-1.04h0ZM156.21,57.24l-1.19,1.61c.78.58,1.55,1.18,2.3,1.79l1.26-1.55s-.03-.02-.04-.03h0s-.01-.01-.02-.02c0,0,0,0,0,0,0,0,0,0-.01-.01,0,0,0,0,0,0,0,0,0,0-.01-.01,0,0,0,0,0,0,0,0,0,0-.01-.01,0,0,0,0,0,0,0,0-.01-.01-.02-.02-.01,0-.02-.02-.03-.03,0,0,0,0,0,0h-.01s0-.01,0-.02c0,0,0,0-.01-.01,0,0,0,0,0,0,0,0,0,0-.01-.01,0,0,0,0,0,0,0,0-.01,0-.02-.01h0c-.08-.07-.17-.14-.25-.21h0s-.02-.02-.04-.03h0s-.07-.06-.11-.09c0,0,0,0,0,0,0,0,0,0-.01-.01,0,0,0,0,0,0,0,0,0,0-.01-.01,0,0,0,0,0,0,0,0,0,0-.01-.01,0,0,0,0,0,0,0,0,0,0-.01,0,0,0,0,0,0,0,0,0,0,0-.01,0,0,0,0,0,0,0,0,0-.01-.01-.02-.02,0,0,0,0-.01,0,0,0,0,0,0,0,0,0,0,0-.01-.01,0,0,0,0,0,0,0,0,0,0-.01-.01,0,0,0,0,0,0,0,0,0,0-.01-.01,0,0,0,0,0,0,0,0-.01,0-.02-.01,0,0,0,0,0,0-.49-.39-.99-.77-1.5-1.14h0ZM151.24,53.87l-1.05,1.7c.82.51,1.65,1.04,2.45,1.59l1.12-1.65c-.39-.26-.78-.52-1.17-.78,0,0,0,0,0,0,0,0-.01,0-.02-.01h0s-.01,0-.02-.01t0,0h-.02s0-.01,0-.01c0,0,0,0-.01,0,0,0,0,0-.01,0,0,0,0,0-.01,0,0,0-.01,0-.02-.01,0,0,0,0,0,0,0,0,0,0-.01,0,0,0,0,0,0,0,0,0,0,0-.02-.01,0,0,0,0,0,0,0,0-.01,0-.02-.01,0,0,0,0,0,0,0,0-.01,0-.02-.01,0,0,0,0,0,0-.38-.24-.75-.48-1.14-.72h0ZM146.02,50.94l-.9,1.78c.86.44,1.73.9,2.57,1.37l.98-1.74c-.17-.09-.34-.19-.51-.28,0,0,0,0,0,0,0,0,0,0-.01,0,0,0,0,0,0,0,0,0,0,0-.01,0,0,0,0,0-.01,0,0,0,0,0-.01,0,0,0,0,0-.01,0h0s-.01-.01-.02-.01c0,0,0,0,0,0-.02-.01-.04-.02-.07-.04,0,0,0,0,0,0,0,0-.01,0-.02-.01,0,0,0,0,0,0,0,0-.01,0-.02-.01,0,0,0,0,0,0-.27-.15-.53-.29-.8-.43h0s-.01,0-.02-.01c0,0,0,0,0,0,0,0-.01,0-.02-.01,0,0,0,0,0,0,0,0-.01,0-.02-.01h0s-.02,0-.02-.01h0s-.03-.02-.05-.02c0,0,0,0,0,0,0,0-.01,0-.02,0,0,0,0,0,0,0,0,0,0,0-.01,0,0,0,0,0-.01,0,0,0,0,0-.01,0,0,0,0,0-.01,0,0,0,0,0,0,0,0,0,0,0-.01,0,0,0,0,0,0,0-.03-.02-.07-.03-.1-.05h0s-.01,0-.02-.01h0c-.25-.13-.5-.26-.75-.39h0ZM140.56,48.45l-.75,1.85c.9.36,1.8.75,2.68,1.15l.83-1.82s0,0,0,0c0,0,0,0,0,0,0,0-.01,0-.02,0,0,0,0,0,0,0,0,0-.01,0-.02,0,0,0,0,0,0,0,0,0-.01,0-.02,0,0,0,0,0,0,0-.26-.12-.52-.23-.78-.35,0,0,0,0,0,0,0,0-.01,0-.02,0,0,0,0,0,0,0,0,0-.01,0-.02,0,0,0,0,0,0,0-.02,0-.03-.01-.05-.02,0,0,0,0,0,0,0,0-.01,0-.02,0,0,0,0,0,0,0,0,0-.01,0-.02,0,0,0,0,0,0,0,0,0-.01,0-.01,0,0,0,0,0,0,0,0,0,0,0-.01,0,0,0,0,0-.01,0,0,0,0,0-.01,0,0,0,0,0-.01,0,0,0,0,0,0,0-.02,0-.04-.02-.06-.02h0s-.01,0-.02,0c0,0,0,0,0,0,0,0-.01,0-.02,0h0s-.01,0-.02-.01c0,0,0,0,0,0-.51-.22-1.02-.43-1.53-.64h0ZM134.91,46.44l-.59,1.91c.92.29,1.85.6,2.77.92l.67-1.88c-.19-.07-.37-.13-.56-.2,0,0,0,0,0,0,0,0-.01,0-.02,0,0,0,0,0,0,0,0,0-.01,0-.02,0,0,0,0,0,0,0,0,0-.01,0-.02,0,0,0,0,0,0,0-.02,0-.03-.01-.05-.02,0,0,0,0-.01,0,0,0,0,0-.01,0h-.01s0,0-.01,0c0,0,0,0-.01,0,0,0,0,0,0,0,0,0-.01,0-.02,0,0,0,0,0,0,0-.57-.2-1.15-.39-1.73-.57,0,0,0,0,0,0,0,0-.01,0-.02,0,0,0,0,0,0,0,0,0-.01,0-.02,0,0,0,0,0,0,0,0,0,0,0-.01,0,0,0,0,0-.01,0,0,0,0,0-.01,0,0,0-.01,0-.02,0,0,0,0,0,0,0,0,0-.01,0-.02,0,0,0,0,0,0,0,0,0-.01,0-.02,0,0,0,0,0,0,0,0,0-.01,0-.02,0,0,0,0,0,0,0-.05-.01-.1-.03-.14-.04h0ZM129.1,44.91l-.43,1.95c.95.21,1.9.44,2.83.68l.51-1.93c-.88-.23-1.76-.45-2.65-.64,0,0,0,0,0,0,0,0-.01,0-.02,0,0,0,0,0,0,0,0,0-.01,0-.02,0,0,0,0,0,0,0,0,0-.01,0-.02,0,0,0,0,0-.01,0h-.01s-.01,0-.02,0c0,0,0,0,0,0,0,0-.01,0-.02,0h0s-.08-.02-.11-.03h0ZM123.2,43.88l-.26,1.98c.96.13,1.93.27,2.88.44l.34-1.97c-.98-.17-1.97-.32-2.96-.45h0ZM117.22,43.35l-.09,2c.97.05,1.95.11,2.91.2l.18-1.99c-.72-.06-1.43-.12-2.16-.16h0s-.02,0-.02,0c0,0,0,0,0,0,0,0-.01,0-.02,0,0,0,0,0,0,0,0,0-.02,0-.03,0h0s-.02,0-.03,0c0,0,0,0-.01,0,0,0,0,0-.01,0,0,0-.01,0-.02,0,0,0,0,0,0,0,0,0-.01,0-.02,0,0,0,0,0,0,0-.22-.01-.44-.02-.65-.03h0Z"/>
  <line class="cls-46" x1="44.66" y1="66.92" x2="44.66" y2="68.74"/>
</svg>